<svg xmlns="http://www.w3.org/2000/svg" viewBox="0 0 1100 750" font-family="Inter, -apple-system, BlinkMacSystemFont, 'Segoe UI', Roboto, sans-serif">
  <defs>
    <!-- Gradients -->
    <linearGradient id="dayGrad" x1="0%" y1="0%" x2="100%" y2="100%">
      <stop offset="0%" style="stop-color:#FFF3BF"/>
      <stop offset="100%" style="stop-color:#FFE066"/>
    </linearGradient>
    <linearGradient id="nightGrad" x1="0%" y1="0%" x2="100%" y2="100%">
      <stop offset="0%" style="stop-color:#BAC8FF"/>
      <stop offset="100%" style="stop-color:#91A7FF"/>
    </linearGradient>
    <linearGradient id="evalGrad" x1="0%" y1="0%" x2="100%" y2="100%">
      <stop offset="0%" style="stop-color:#B2F2BB"/>
      <stop offset="100%" style="stop-color:#8CE99A"/>
    </linearGradient>
    <linearGradient id="dataGrad" x1="0%" y1="0%" x2="0%" y2="100%">
      <stop offset="0%" style="stop-color:#E9ECEF"/>
      <stop offset="100%" style="stop-color:#DEE2E6"/>
    </linearGradient>
    <linearGradient id="successGrad" x1="0%" y1="0%" x2="0%" y2="100%">
      <stop offset="0%" style="stop-color:#D3F9D8"/>
      <stop offset="100%" style="stop-color:#B2F2BB"/>
    </linearGradient>
    <linearGradient id="failGrad" x1="0%" y1="0%" x2="0%" y2="100%">
      <stop offset="0%" style="stop-color:#FFE3E3"/>
      <stop offset="100%" style="stop-color:#FFC9C9"/>
    </linearGradient>

    <!-- Shadows -->
    <filter id="shadow" x="-20%" y="-20%" width="140%" height="140%">
      <feDropShadow dx="0" dy="3" stdDeviation="5" flood-color="#000" flood-opacity="0.12"/>
    </filter>
    <filter id="softShadow" x="-10%" y="-10%" width="120%" height="120%">
      <feDropShadow dx="0" dy="2" stdDeviation="3" flood-color="#000" flood-opacity="0.08"/>
    </filter>
    <filter id="innerGlow" x="-50%" y="-50%" width="200%" height="200%">
      <feGaussianBlur stdDeviation="3" result="blur"/>
      <feComposite in="SourceGraphic" in2="blur" operator="over"/>
    </filter>

    <!-- Arrow markers -->
    <marker id="arrowDark" markerWidth="10" markerHeight="10" refX="9" refY="3" orient="auto" markerUnits="strokeWidth">
      <path d="M0,0 L0,6 L9,3 z" fill="#495057"/>
    </marker>
    <marker id="arrowYellow" markerWidth="10" markerHeight="10" refX="9" refY="3" orient="auto" markerUnits="strokeWidth">
      <path d="M0,0 L0,6 L9,3 z" fill="#E67700"/>
    </marker>
    <marker id="arrowIndigo" markerWidth="10" markerHeight="10" refX="9" refY="3" orient="auto" markerUnits="strokeWidth">
      <path d="M0,0 L0,6 L9,3 z" fill="#4263EB"/>
    </marker>
    <marker id="arrowGreen" markerWidth="10" markerHeight="10" refX="9" refY="3" orient="auto" markerUnits="strokeWidth">
      <path d="M0,0 L0,6 L9,3 z" fill="#2F9E44"/>
    </marker>
    <marker id="arrowRed" markerWidth="10" markerHeight="10" refX="9" refY="3" orient="auto" markerUnits="strokeWidth">
      <path d="M0,0 L0,6 L9,3 z" fill="#E03131"/>
    </marker>

    <!-- Patterns -->
    <pattern id="diagonalStripes" patternUnits="userSpaceOnUse" width="6" height="6">
      <path d="M0,6 L6,0" stroke="#CED4DA" stroke-width="1" opacity="0.3"/>
    </pattern>
  </defs>

  <!-- Background - warm gray/cream -->
  <rect width="1100" height="750" fill="#F8F6F1"/>

  <!-- Subtle texture overlay -->
  <rect width="1100" height="750" fill="url(#diagonalStripes)" opacity="0.15"/>

  <!-- Title -->
  <text x="550" y="42" text-anchor="middle" font-size="24" font-weight="600" fill="#343A40">Day/Night Continual Learning Cycle</text>
  <text x="550" y="66" text-anchor="middle" font-size="13" fill="#868E96">Self-improving loop: attempt fixes, learn from failures, validate improvements</text>

  <!-- ═══════════════════════════════════════════════════════════════ -->
  <!-- PHASE 1: DAY -->
  <!-- ═══════════════════════════════════════════════════════════════ -->

  <!-- Day container -->
  <g filter="url(#shadow)">
    <rect x="40" y="100" width="320" height="380" rx="16" fill="url(#dayGrad)"/>
  </g>

  <!-- Day header -->
  <g>
    <!-- Sun icon -->
    <circle cx="80" cy="130" r="16" fill="#FCC419" stroke="#F59F00" stroke-width="2"/>
    <g stroke="#F59F00" stroke-width="2" stroke-linecap="round">
      <line x1="80" y1="108" x2="80" y2="100"/>
      <line x1="80" y1="160" x2="80" y2="152"/>
      <line x1="58" y1="130" x2="50" y2="130"/>
      <line x1="110" y1="130" x2="102" y2="130"/>
      <line x1="64" y1="114" x2="58" y2="108"/>
      <line x1="96" y1="146" x2="102" y2="152"/>
      <line x1="64" y1="146" x2="58" y2="152"/>
      <line x1="96" y1="114" x2="102" y2="108"/>
    </g>
    <text x="110" y="126" font-size="18" font-weight="700" fill="#664D03">DAY</text>
    <text x="110" y="144" font-size="11" fill="#997404">Agent Attempts to Fix Code</text>
  </g>

  <!-- Day flow -->
  <g filter="url(#softShadow)">
    <!-- Load Task -->
    <rect x="60" y="175" width="130" height="50" rx="8" fill="#FFFEF5" stroke="#E9ECEF" stroke-width="1.5"/>
    <text x="125" y="197" text-anchor="middle" font-size="11" font-weight="500" fill="#343A40">Load Task</text>
    <text x="125" y="212" text-anchor="middle" font-size="9" fill="#868E96">from Koans</text>

    <!-- Sandbox -->
    <rect x="210" y="175" width="130" height="50" rx="8" fill="#FFFEF5" stroke="#E9ECEF" stroke-width="1.5"/>
    <text x="275" y="197" text-anchor="middle" font-size="11" font-weight="500" fill="#343A40">Sandbox</text>
    <text x="275" y="212" text-anchor="middle" font-size="9" fill="#868E96">cargo check</text>

    <!-- Decision diamond -->
    <polygon points="200,290 250,260 300,290 250,320" fill="#FFFEF5" stroke="#E9ECEF" stroke-width="1.5"/>
    <text x="250" y="287" text-anchor="middle" font-size="10" font-weight="500" fill="#343A40">Error?</text>
    <text x="250" y="300" text-anchor="middle" font-size="9" fill="#868E96">check</text>

    <!-- Call LLM -->
    <rect x="60" y="340" width="120" height="50" rx="8" fill="#FFFEF5" stroke="#E9ECEF" stroke-width="1.5"/>
    <text x="120" y="362" text-anchor="middle" font-size="11" font-weight="500" fill="#343A40">Call Ollama</text>
    <text x="120" y="377" text-anchor="middle" font-size="9" fill="#868E96">generate fix</text>

    <!-- Apply Fix -->
    <rect x="60" y="265" width="100" height="45" rx="8" fill="#FFFEF5" stroke="#E9ECEF" stroke-width="1.5"/>
    <text x="110" y="285" text-anchor="middle" font-size="11" font-weight="500" fill="#343A40">Apply Fix</text>
    <text x="110" y="300" text-anchor="middle" font-size="9" fill="#868E96">update code</text>

    <!-- Success: Create Episode -->
    <rect x="210" y="400" width="130" height="55" rx="8" fill="url(#successGrad)" stroke="#40C057" stroke-width="1.5"/>
    <text x="275" y="422" text-anchor="middle" font-size="11" font-weight="600" fill="#2B8A3E">Episode</text>
    <text x="275" y="438" text-anchor="middle" font-size="9" fill="#37B24D">passed: true</text>
    <text x="275" y="450" text-anchor="middle" font-size="8" fill="#868E96">steps, timing, diff</text>
  </g>

  <!-- Day internal arrows -->
  <path d="M190,200 L205,200" fill="none" stroke="#ADB5BD" stroke-width="1.5" marker-end="url(#arrowDark)"/>
  <path d="M275,225 L275,255" fill="none" stroke="#ADB5BD" stroke-width="1.5" marker-end="url(#arrowDark)"/>
  <path d="M200,290 L165,290" fill="none" stroke="#E03131" stroke-width="1.5" marker-end="url(#arrowRed)"/>
  <text x="183" y="283" font-size="8" fill="#E03131">yes</text>
  <path d="M120,340 L120,315" fill="none" stroke="#ADB5BD" stroke-width="1.5" marker-end="url(#arrowDark)"/>
  <path d="M60,287 L60,200 L55,200" fill="none" stroke="#ADB5BD" stroke-width="1.5"/>
  <path d="M55,200 Q40,200 40,215 L40,365 Q40,380 55,380 L55,365" fill="none" stroke="#ADB5BD" stroke-width="1.5" marker-end="url(#arrowDark)"/>
  <text x="30" y="290" font-size="8" fill="#868E96" transform="rotate(-90, 30, 290)">retry loop</text>
  <path d="M275,320 L275,395" fill="none" stroke="#40C057" stroke-width="2" marker-end="url(#arrowGreen)"/>
  <text x="285" y="355" font-size="8" fill="#40C057">pass</text>

  <!-- ═══════════════════════════════════════════════════════════════ -->
  <!-- PHASE 2: NIGHT -->
  <!-- ═══════════════════════════════════════════════════════════════ -->

  <!-- Night container -->
  <g filter="url(#shadow)">
    <rect x="400" y="100" width="320" height="380" rx="16" fill="url(#nightGrad)"/>
  </g>

  <!-- Night header -->
  <g>
    <!-- Moon icon -->
    <circle cx="440" cy="130" r="14" fill="#748FFC"/>
    <circle cx="448" cy="124" r="10" fill="url(#nightGrad)"/>
    <text x="470" y="126" font-size="18" font-weight="700" fill="#1C3F94">NIGHT</text>
    <text x="470" y="144" font-size="11" fill="#364FC7">LoRA Fine-tuning on Failures</text>
  </g>

  <!-- Night flow -->
  <g filter="url(#softShadow)">
    <!-- Load Episodes -->
    <rect x="420" y="175" width="140" height="50" rx="8" fill="#F8F9FF" stroke="#C5D0F0" stroke-width="1.5"/>
    <text x="490" y="197" text-anchor="middle" font-size="11" font-weight="500" fill="#343A40">Load Episodes</text>
    <text x="490" y="212" text-anchor="middle" font-size="9" fill="#868E96">failed_then_fixed</text>

    <!-- Curate Dataset -->
    <rect x="420" y="245" width="140" height="50" rx="8" fill="#F8F9FF" stroke="#C5D0F0" stroke-width="1.5"/>
    <text x="490" y="267" text-anchor="middle" font-size="11" font-weight="500" fill="#343A40">Curate Dataset</text>
    <text x="490" y="282" text-anchor="middle" font-size="9" fill="#868E96">balance classes</text>

    <!-- Data mix annotation -->
    <rect x="575" y="240" width="130" height="60" rx="6" fill="#EDF2FF" stroke="#748FFC" stroke-width="1" stroke-dasharray="3,2"/>
    <text x="640" y="258" text-anchor="middle" font-size="9" font-weight="500" fill="#4263EB">Data Mix</text>
    <text x="640" y="273" text-anchor="middle" font-size="8" fill="#5C7CFA">44% replay</text>
    <text x="640" y="286" text-anchor="middle" font-size="8" fill="#5C7CFA">42% success | 14% hard</text>

    <!-- LoRA Training -->
    <rect x="420" y="315" width="140" height="55" rx="8" fill="#F8F9FF" stroke="#C5D0F0" stroke-width="1.5"/>
    <text x="490" y="337" text-anchor="middle" font-size="11" font-weight="600" fill="#343A40">LoRA Fine-tune</text>
    <text x="490" y="352" text-anchor="middle" font-size="9" fill="#868E96">r=8, α=16</text>
    <text x="490" y="364" text-anchor="middle" font-size="8" fill="#ADB5BD">300-500 steps</text>

    <!-- Save Adapter -->
    <rect x="420" y="390" width="140" height="50" rx="8" fill="#F8F9FF" stroke="#C5D0F0" stroke-width="1.5"/>
    <text x="490" y="412" text-anchor="middle" font-size="11" font-weight="500" fill="#343A40">Save Adapter</text>
    <text x="490" y="427" text-anchor="middle" font-size="9" fill="#868E96">+ metadata</text>

    <!-- Share Consolidation (optional) -->
    <rect x="575" y="385" width="130" height="60" rx="6" fill="#EDF2FF" stroke="#748FFC" stroke-width="1" stroke-dasharray="3,2"/>
    <text x="640" y="403" text-anchor="middle" font-size="9" font-weight="500" fill="#4263EB">Share (Phase 2)</text>
    <text x="640" y="418" text-anchor="middle" font-size="8" fill="#5C7CFA">Extract shared basis</text>
    <text x="640" y="431" text-anchor="middle" font-size="8" fill="#5C7CFA">Coeff-only training</text>
  </g>

  <!-- Night internal arrows -->
  <path d="M490,225 L490,240" fill="none" stroke="#5C7CFA" stroke-width="1.5" marker-end="url(#arrowIndigo)"/>
  <path d="M490,295 L490,310" fill="none" stroke="#5C7CFA" stroke-width="1.5" marker-end="url(#arrowIndigo)"/>
  <path d="M490,370 L490,385" fill="none" stroke="#5C7CFA" stroke-width="1.5" marker-end="url(#arrowIndigo)"/>
  <path d="M560,270 L570,270" fill="none" stroke="#748FFC" stroke-width="1" stroke-dasharray="2,2"/>
  <path d="M560,415 L570,415" fill="none" stroke="#748FFC" stroke-width="1" stroke-dasharray="2,2"/>

  <!-- ═══════════════════════════════════════════════════════════════ -->
  <!-- PHASE 3: EVAL -->
  <!-- ═══════════════════════════════════════════════════════════════ -->

  <!-- Eval container -->
  <g filter="url(#shadow)">
    <rect x="760" y="100" width="300" height="380" rx="16" fill="url(#evalGrad)"/>
  </g>

  <!-- Eval header -->
  <g>
    <!-- Checkmark icon -->
    <circle cx="800" cy="130" r="14" fill="#40C057" stroke="#2F9E44" stroke-width="2"/>
    <polyline points="792,130 798,136 810,122" stroke="white" stroke-width="3" fill="none" stroke-linecap="round" stroke-linejoin="round"/>
    <text x="830" y="126" font-size="18" font-weight="700" fill="#0B5727">EVAL</text>
    <text x="830" y="144" font-size="11" fill="#2B8A3E">Gated Promotion</text>
  </g>

  <!-- Eval flow -->
  <g filter="url(#softShadow)">
    <!-- Run Frozen Set -->
    <rect x="780" y="175" width="140" height="50" rx="8" fill="#F4FBF5" stroke="#B2F2BB" stroke-width="1.5"/>
    <text x="850" y="197" text-anchor="middle" font-size="11" font-weight="500" fill="#343A40">Run Frozen Set</text>
    <text x="850" y="212" text-anchor="middle" font-size="9" fill="#868E96">30 held-out tasks</text>

    <!-- Compute Metrics -->
    <rect x="780" y="245" width="140" height="50" rx="8" fill="#F4FBF5" stroke="#B2F2BB" stroke-width="1.5"/>
    <text x="850" y="267" text-anchor="middle" font-size="11" font-weight="500" fill="#343A40">Compute Metrics</text>
    <text x="850" y="282" text-anchor="middle" font-size="9" fill="#868E96">compare to baseline</text>

    <!-- Metrics list -->
    <rect x="935" y="175" width="115" height="80" rx="6" fill="#E6FCF5" stroke="#69DB7C" stroke-width="1" stroke-dasharray="3,2"/>
    <text x="992" y="193" text-anchor="middle" font-size="9" font-weight="500" fill="#099268">Metrics</text>
    <text x="992" y="208" text-anchor="middle" font-size="8" fill="#20C997">pass_rate</text>
    <text x="992" y="221" text-anchor="middle" font-size="8" fill="#20C997">frozen_pass_rate</text>
    <text x="992" y="234" text-anchor="middle" font-size="8" fill="#20C997">repeat_error_rate</text>
    <text x="992" y="247" text-anchor="middle" font-size="8" fill="#20C997">median_steps</text>

    <!-- Gate Decision -->
    <polygon points="850,335 910,305 970,335 910,365" fill="#F4FBF5" stroke="#B2F2BB" stroke-width="1.5"/>
    <text x="910" y="332" text-anchor="middle" font-size="10" font-weight="500" fill="#343A40">Gates</text>
    <text x="910" y="345" text-anchor="middle" font-size="9" fill="#868E96">Pass?</text>

    <!-- Promote -->
    <rect x="780" y="400" width="100" height="50" rx="8" fill="url(#successGrad)" stroke="#40C057" stroke-width="2"/>
    <text x="830" y="422" text-anchor="middle" font-size="11" font-weight="600" fill="#2B8A3E">Promote</text>
    <text x="830" y="437" text-anchor="middle" font-size="9" fill="#37B24D">→ Ollama</text>

    <!-- Keep Previous -->
    <rect x="920" y="400" width="100" height="50" rx="8" fill="url(#failGrad)" stroke="#E03131" stroke-width="1.5"/>
    <text x="970" y="422" text-anchor="middle" font-size="11" font-weight="500" fill="#C92A2A">Keep Old</text>
    <text x="970" y="437" text-anchor="middle" font-size="9" fill="#E03131">log reason</text>
  </g>

  <!-- Eval internal arrows -->
  <path d="M850,225 L850,240" fill="none" stroke="#37B24D" stroke-width="1.5" marker-end="url(#arrowGreen)"/>
  <path d="M850,295 L850,300" fill="none" stroke="#37B24D" stroke-width="1.5" marker-end="url(#arrowGreen)"/>
  <path d="M920,215 L930,215" fill="none" stroke="#69DB7C" stroke-width="1" stroke-dasharray="2,2"/>
  <path d="M865,365 L840,395" fill="none" stroke="#40C057" stroke-width="2" marker-end="url(#arrowGreen)"/>
  <text x="840" y="378" font-size="8" fill="#40C057">yes</text>
  <path d="M955,365 L965,395" fill="none" stroke="#E03131" stroke-width="1.5" marker-end="url(#arrowRed)"/>
  <text x="972" y="378" font-size="8" fill="#E03131">no</text>

  <!-- ═══════════════════════════════════════════════════════════════ -->
  <!-- PHASE TRANSITIONS (Large curved arrows) -->
  <!-- ═══════════════════════════════════════════════════════════════ -->

  <!-- Day → Night: Episodes flow to SQLite then to Night -->
  <path d="M340,430 Q380,530 490,530 Q600,530 600,490" fill="none" stroke="#495057" stroke-width="3" marker-end="url(#arrowDark)"/>
  <rect x="440" y="510" width="100" height="40" rx="6" fill="#F8F6F1" stroke="#CED4DA" stroke-width="1.5" filter="url(#softShadow)"/>
  <!-- DB icon mini -->
  <ellipse cx="490" cy="522" rx="12" ry="4" fill="none" stroke="#868E96" stroke-width="1.2"/>
  <path d="M478,522 v12 a12,4 0 0,0 24,0 v-12" fill="none" stroke="#868E96" stroke-width="1.2"/>
  <text x="490" y="548" text-anchor="middle" font-size="8" fill="#495057">SQLite</text>
  <text x="350" y="490" font-size="10" font-weight="500" fill="#495057">episodes</text>

  <!-- Night → Eval: Adapter flows -->
  <path d="M720,415 L755,415" fill="none" stroke="#495057" stroke-width="3" marker-end="url(#arrowDark)"/>
  <text x="738" y="408" font-size="10" font-weight="500" fill="#495057">adapter</text>

  <!-- Eval → Day: Cycle back (promoted model) -->
  <path d="M830,455 Q830,620 550,640 Q200,660 200,550 Q200,480 200,460" fill="none" stroke="#495057" stroke-width="3" marker-end="url(#arrowDark)" stroke-dasharray="8,4"/>
  <text x="550" y="670" text-anchor="middle" font-size="11" font-weight="500" fill="#495057">Next cycle with improved model</text>

  <!-- ═══════════════════════════════════════════════════════════════ -->
  <!-- CYCLE COUNTER -->
  <!-- ═══════════════════════════════════════════════════════════════ -->

  <g transform="translate(40, 520)">
    <rect width="160" height="65" rx="10" fill="#F8F6F1" stroke="#CED4DA" stroke-width="1.5" filter="url(#softShadow)"/>
    <text x="80" y="22" text-anchor="middle" font-size="10" font-weight="600" fill="#495057">Cycle Progress</text>

    <!-- Cycle dots -->
    <circle cx="35" cy="45" r="8" fill="#40C057"/>
    <text x="35" y="48" text-anchor="middle" font-size="8" font-weight="600" fill="white">0</text>

    <circle cx="60" cy="45" r="8" fill="#40C057"/>
    <text x="60" y="48" text-anchor="middle" font-size="8" font-weight="600" fill="white">1</text>

    <circle cx="85" cy="45" r="8" fill="#748FFC"/>
    <text x="85" y="48" text-anchor="middle" font-size="8" font-weight="600" fill="white">2</text>

    <circle cx="110" cy="45" r="8" fill="#E9ECEF" stroke="#CED4DA"/>
    <text x="110" y="48" text-anchor="middle" font-size="8" fill="#868E96">3</text>

    <circle cx="135" cy="45" r="8" fill="#E9ECEF" stroke="#CED4DA"/>
    <text x="135" y="48" text-anchor="middle" font-size="8" fill="#868E96">n</text>
  </g>

  <!-- ═══════════════════════════════════════════════════════════════ -->
  <!-- LEGEND -->
  <!-- ═══════════════════════════════════════════════════════════════ -->

  <g transform="translate(760, 520)">
    <rect width="290" height="95" rx="10" fill="#F8F6F1" stroke="#CED4DA" stroke-width="1.5" filter="url(#softShadow)"/>
    <text x="15" y="22" font-size="10" font-weight="600" fill="#495057">Key</text>

    <rect x="15" y="35" width="18" height="14" rx="3" fill="url(#dayGrad)" stroke="#E9ECEF"/>
    <text x="40" y="46" font-size="9" fill="#495057">Day: Agent attempts</text>

    <rect x="150" y="35" width="18" height="14" rx="3" fill="url(#nightGrad)" stroke="#C5D0F0"/>
    <text x="175" y="46" font-size="9" fill="#495057">Night: Training</text>

    <rect x="15" y="58" width="18" height="14" rx="3" fill="url(#evalGrad)" stroke="#B2F2BB"/>
    <text x="40" y="69" font-size="9" fill="#495057">Eval: Validation</text>

    <line x1="150" y1="65" x2="175" y2="65" stroke="#495057" stroke-width="2.5"/>
    <text x="182" y="69" font-size="9" fill="#495057">Data flow</text>

    <line x1="15" y1="85" x2="40" y2="85" stroke="#495057" stroke-width="2.5" stroke-dasharray="6,3"/>
    <text x="47" y="89" font-size="9" fill="#495057">Cycle transition</text>
  </g>

  <!-- ═══════════════════════════════════════════════════════════════ -->
  <!-- GATING CRITERIA BOX -->
  <!-- ═══════════════════════════════════════════════════════════════ -->

  <g transform="translate(220, 520)">
    <rect width="200" height="95" rx="10" fill="#F8F6F1" stroke="#CED4DA" stroke-width="1.5" filter="url(#softShadow)"/>
    <text x="100" y="22" text-anchor="middle" font-size="10" font-weight="600" fill="#495057">Gating Criteria</text>

    <g font-size="9" fill="#495057">
      <text x="15" y="42">pass_rate ≥ 0.85</text>
      <text x="15" y="57">frozen_pass_rate: no regression</text>
      <text x="15" y="72">repeat_error_rate: ↓ decreasing</text>
      <text x="15" y="87">median_steps: ↓ improving</text>
    </g>
  </g>

  <!-- ═══════════════════════════════════════════════════════════════ -->
  <!-- TIMING ANNOTATIONS -->
  <!-- ═══════════════════════════════════════════════════════════════ -->

  <g transform="translate(450, 520)">
    <rect width="130" height="95" rx="10" fill="#F8F6F1" stroke="#CED4DA" stroke-width="1.5" filter="url(#softShadow)"/>
    <text x="65" y="22" text-anchor="middle" font-size="10" font-weight="600" fill="#495057">Typical Timing</text>

    <g font-size="9" fill="#495057">
      <circle cx="20" cy="42" r="5" fill="url(#dayGrad)"/>
      <text x="32" y="46">Day: 30 tasks</text>

      <circle cx="20" cy="62" r="5" fill="url(#nightGrad)"/>
      <text x="32" y="66">Night: 300-500 steps</text>

      <circle cx="20" cy="82" r="5" fill="url(#evalGrad)"/>
      <text x="32" y="86">Eval: 30 frozen tasks</text>
    </g>
  </g>

</svg>
